Coordinates
version=1
nRows=6
nColumns=36
inDegrees=yes

Units are S.I. units (second, meters, Newtons, ...)
If the header above contains a line with 'inDegrees', this indicates whether rotational values are in degrees (yes) or radians (no).

endheader
time	pelvis_tilt	pelvis_list	pelvis_rotation	pelvis_tx	pelvis_ty	pelvis_tz	hip_flexion_r	hip_adduction_r	hip_rotation_r	knee_angle_r	knee_angle_r_beta	ankle_angle_r	subtalar_angle_r	mtp_angle_r	hip_flexion_l	hip_adduction_l	hip_rotation_l	knee_angle_l	knee_angle_l_beta	ankle_angle_l	subtalar_angle_l	mtp_angle_l	lumbar_extension	lumbar_bending	lumbar_rotation	arm_flex_r	arm_add_r	arm_rot_r	elbow_flex_r	pro_sup_r	arm_flex_l	arm_add_l	arm_rot_l	elbow_flex_l	pro_sup_l
      0.00000000	     -1.58325592	      4.26574676	      8.22479428	     -0.17940088	      0.99619079	     -0.23761973	     27.47219371	     -5.07202394	    -15.12397193	      0.76432975	      0.01334007	     -2.00445230	      7.54409512	     -6.08864564	    -17.05483198	      5.15746416	     -2.46862348	      8.41240138	      0.14682410	     16.30080087	     12.16120074	     -6.08864564	    -12.68698476	     -5.98318968	    -15.18178986	    -18.79955029	     -1.54159588	    -14.98305162	     34.36317583	    110.79862387	     13.64570751	    -25.39370167	    -16.07346226	     61.71452355	     98.73128625
      0.01000000	     -1.77018974	      3.85986459	      8.67166744	     -0.16317166	      0.99690098	     -0.23696511	     26.87001659	     -4.57697789	    -15.40151345	      0.58469677	      0.01020488	     -3.35740172	      7.53703427	     -6.10572532	    -16.91483072	      4.35133086	     -2.32401195	      9.73267131	      0.16986716	     15.15977834	     11.72688529	     -6.10572532	    -12.14479933	     -5.55523890	    -15.23460872	    -19.00932180	     -1.38847965	    -15.06234773	     33.88301174	    110.66594473	     13.18934654	    -25.24114006	    -16.09033244	     61.86372298	     98.78411562
      0.02000000	     -1.99373721	      3.45123169	      9.11006436	     -0.14690259	      0.99765268	     -0.23627451	     26.34261924	     -4.09348718	    -15.64634785	      0.48029576	      0.00838274	     -4.83280168	      7.30202730	     -6.12482678	    -16.65315799	      3.55939174	     -2.12537095	     11.17130776	      0.19497610	     13.90949508	     11.09167258	     -6.12482678	    -11.55709962	     -5.15035339	    -15.34525594	    -19.13402628	     -1.24830442	    -15.14126259	     33.29465579	    110.54706477	     12.57763429	    -25.06898873	    -16.25865412	     62.14995517	     98.84971471
      0.03000000	     -2.10879690	      3.05551959	      9.48541495	     -0.13059947	      0.99874317	     -0.23551512	     25.68281511	     -3.61570281	    -15.64071892	      0.40558876	      0.00707886	     -5.93420623	      7.19613064	     -6.13573788	    -16.41752360	      2.79771802	     -1.77140768	     12.73906891	      0.22233870	     12.59768516	     10.57440389	     -6.13573788	    -11.11633463	     -4.75969192	    -15.30850712	    -19.32225419	     -1.13302475	    -15.17247564	     32.89328623	    110.47826295	     12.04663792	    -24.80710729	    -16.35567165	     62.42947877	     98.89299548
      0.04000000	     -2.33396307	      2.60590774	      9.79258463	     -0.11415978	      0.99999572	     -0.23450073	     25.17963398	     -3.08457609	    -15.74559830	      0.38396793	      0.00670150	     -7.59113451	      6.56194276	     -6.15651299	    -15.80161294	      2.01419856	     -1.69617163	     14.70119435	      0.25658425	     10.96627826	      9.30623180	     -6.15651299	    -10.52384067	     -4.37770393	    -15.33748416	    -19.33584533	     -1.02124108	    -15.21073778	     32.35970605	    110.39935512	     11.13078235	    -24.54453283	    -16.70323997	     62.89012390	     98.95974638
      0.05000000	     -2.36859303	      2.17540968	     10.00426747	     -0.09770863	      1.00171870	     -0.23336669	     24.44331609	     -2.54626038	    -15.60880046	      0.39101936	      0.00682458	     -8.80370968	      6.00732423	     -6.17352081	    -15.17858212	      1.25146787	     -1.59601554	     17.00171155	      0.29673585	      9.14123744	      8.13792941	     -6.17352081	    -10.17846837	     -4.01567715	    -15.15071648	    -19.40321013	     -0.93168708	    -15.18331348	     32.04730013	    110.33830677	     10.34515926	    -24.17028820	    -16.93252600	     63.32645954	     99.00386433
